<?xml version="1.0" encoding="UTF-8"?>
<svg width="77px" height="96px" viewBox="0 0 77 96" version="1.1" xmlns="http://www.w3.org/2000/svg" xmlns:xlink="http://www.w3.org/1999/xlink">
    <!-- Generator: Sketch 53 (72520) - https://sketchapp.com -->
    <title>logo</title>
    <desc>Created with Sketch.</desc>
    <defs>
        <polygon id="path-1" points="0 94.2928571 76.797785 94.2928571 76.797785 0 0 0"></polygon>
    </defs>
    <g id="Symbols" stroke="none" stroke-width="1" fill="none" fill-rule="evenodd">
        <g id="Menu-nav" transform="translate(-164.000000, -15.000000)">
            <g id="logo" transform="translate(164.000000, 16.000000)">
                <path d="M51.5952533,51.3708571 L25.5858047,51.3837143 C18.4643841,51.3565714 12.6951411,45.6272857 12.6872252,38.5551429 L12.6613187,18.9308571 L29.8467112,18.9308571 L29.8467112,38.5544286 L47.1832252,38.5544286 L47.1832252,18.9308571 L64.3686178,18.9308571 L64.3686178,37.7265714 C64.3837299,37.9958571 64.3938047,38.268 64.3938047,38.5422857 C64.3938047,45.5858571 58.6749355,51.3037143 51.5952533,51.3708571 L51.5952533,51.3708571 Z M12.6613187,15.4594286 L64.3686178,15.4594286 L64.3686178,0.063 L12.6613187,0.063 L12.6613187,15.4594286 Z" id="Fill-1" fill="#1D1D1B"></path>
                <path d="M51.5952533,51.3708571 L25.5858047,51.3837143 C18.4643841,51.3565714 12.6951411,45.6272857 12.6872252,38.5551429 L12.6613187,18.9308571 L29.8467112,18.9308571 L29.8467112,38.5544286 L47.1832252,38.5544286 L47.1832252,18.9308571 L64.3686178,18.9308571 L64.3686178,37.7265714 C64.3837299,37.9958571 64.3938047,38.268 64.3938047,38.5422857 C64.3938047,45.5858571 58.6749355,51.3037143 51.5952533,51.3708571 Z M12.6613187,15.4594286 L64.3686178,15.4594286 L64.3686178,0.063 L12.6613187,0.063 L12.6613187,15.4594286 Z" id="Stroke-3" stroke="#1D1D1B" stroke-width="0.5"></path>
                <path d="M20.6190168,60.206 L18.3629888,65.0467143 L22.9211009,65.0467143 L20.6190168,60.206 Z M19.0156897,54.8238571 L22.2194654,54.8238571 L30.0324467,71.2538571 L25.8715682,71.2538571 L24.3380449,68.026 L16.9769888,68.026 L15.475129,71.2538571 L11.3358393,71.2538571 L19.0156897,54.8238571 Z" id="Fill-5" fill="#1D1D1B"></path>
                <path d="M57.0387935,55.6991429 L57.0387935,59.7041429 C54.9641112,58.6377143 53.1484944,58.1034286 51.5912234,58.1034286 C50.0339523,58.1034286 48.7868402,58.5627143 47.8506065,59.4805714 C46.9165318,60.397 46.450214,61.632 46.450214,63.1841429 C46.450214,64.6505714 46.9417187,65.8262857 47.9254477,66.7048571 C48.9077374,67.5877143 50.2217748,68.0262857 51.8675598,68.0262857 C53.3082514,68.0262857 55.0324757,67.5305714 57.0387935,66.5377143 L57.0387935,70.5162857 C54.7885224,71.1584286 52.9160551,71.4805714 51.4156346,71.4805714 C48.8364944,71.4805714 46.6445131,70.6684286 44.8440084,69.0455714 C43.0420645,67.4248571 42.1410925,65.4441429 42.1410925,63.1091429 C42.1410925,60.7291429 43.0586159,58.7198571 44.8943822,57.0712857 C46.7315879,55.4234286 48.9609897,54.5984286 51.5912234,54.5984286 C53.285943,54.5984286 55.1015598,54.967 57.0387935,55.6991429" id="Fill-7" fill="#1D1D1B"></path>
                <path d="M67.213372,60.206 L64.9573439,65.0467143 L69.5147364,65.0467143 L67.213372,60.206 Z M65.6093252,54.8238571 L68.8131009,54.8238571 L76.6260822,71.2538571 L72.4652037,71.2538571 L70.9316804,68.026 L63.5713439,68.026 L62.0694841,71.2538571 L57.9301944,71.2538571 L65.6093252,54.8238571 Z" id="Fill-9" fill="#1D1D1B"></path>
                <path d="M43.7075028,70.086 C42.9087178,69.3674286 42.2991944,68.5724286 41.8530262,67.7138571 L35.9326617,67.7138571 L35.9326617,54.8238571 L31.8286336,54.8238571 L31.8286336,71.2538571 L45.320185,71.2538571 C44.7531196,70.9274286 44.2126804,70.5438571 43.7075028,70.086" id="Fill-11" fill="#1D1D1B"></path>
                <polygon id="Fill-13" fill="#1D1D1B" points="12.7424925 54.8237143 7.19626168e-05 54.8237143 7.19626168e-05 58.3172857 4.3682028 58.3172857 4.3682028 71.2537143 8.50029626 71.2537143 8.50029626 58.3172857 12.7295393 58.3172857"></polygon>
                <path d="M4.47801776,74.6702857 L6.20799907,74.6702857 L6.20799907,79.1188571 C6.20799907,79.5324286 6.33609252,79.8638571 6.59227944,80.1152857 C6.84846636,80.3667143 7.18597103,80.4917143 7.60335421,80.4917143 C8.08262523,80.4917143 8.45467196,80.366 8.71949439,80.1124286 C8.9835972,79.8602857 9.11600841,79.5031429 9.11600841,79.041 L9.11600841,74.6702857 L10.8402327,74.6702857 L10.8402327,79.3788571 C10.8402327,79.7924286 10.7200551,80.221 10.4804196,80.6667143 C10.2407841,81.1117143 9.87161589,81.4524286 9.37363458,81.6881429 C8.87493364,81.9252857 8.31794299,82.0431429 7.70194299,82.0431429 C6.58652243,82.0431429 5.76974673,81.7652857 5.25305514,81.2095714 C4.73564393,80.6538571 4.47801776,80.0695714 4.47801776,79.4567143 L4.47801776,74.6702857 Z" id="Fill-15" fill="#1D1D1B"></path>
                <polygon id="Fill-17" fill="#1D1D1B" points="17.794628 74.6702857 19.5123757 74.6702857 19.5123757 81.9438571 17.8025439 81.9438571 14.0799178 77.2352857 14.0799178 81.9438571 12.3247495 81.9438571 12.3247495 74.6702857 14.0604879 74.6702857 17.794628 79.3452857"></polygon>
                <mask id="mask-2" fill="white">
                    <use xlink:href="#path-1"></use>
                </mask>
                <g id="Clip-20"></g>
                <polygon id="Fill-19" fill="#1D1D1B" mask="url(#mask-2)" points="20.9353645 81.9435714 22.6898131 81.9435714 22.6898131 74.67 20.9353645 74.67"></polygon>
                <polygon id="Fill-21" fill="#1D1D1B" mask="url(#mask-2)" points="23.5242196 74.6702857 25.300257 74.6702857 27.3591075 79.5067143 29.4215561 74.6702857 31.200472 74.6702857 28.1183131 81.9438571 26.5948645 81.9438571"></polygon>
                <polygon id="Fill-22" fill="#1D1D1B" mask="url(#mask-2)" points="32.1400159 74.6702857 36.7225953 74.6702857 36.7225953 76.111 33.8944645 76.111 33.8944645 77.5788571 36.7225953 77.5788571 36.7225953 78.9967143 33.8944645 78.9967143 33.8944645 80.5031429 36.7225953 80.5031429 36.7225953 81.9438571 32.1400159 81.9438571"></polygon>
                <path d="M39.8324598,75.9662857 L39.8324598,77.8605714 L40.2117028,77.8605714 C41.1292262,77.8605714 41.5869084,77.527 41.5869084,76.8584286 C41.5869084,76.5848571 41.4674505,76.3677143 41.2285346,76.2077143 C40.9910579,76.047 40.6593103,75.9662857 40.2368897,75.9662857 L39.8324598,75.9662857 Z M38.0650579,74.6705714 L40.7471047,74.6705714 C41.5617215,74.6705714 42.2072262,74.8627143 42.6807402,75.2462857 C43.1542542,75.6298571 43.3917308,76.1491429 43.3917308,76.802 C43.3917308,77.1741429 43.2830673,77.562 43.0657402,77.9648571 C42.8476935,78.367 42.4475813,78.6827143 41.8632449,78.9112857 L44.1415813,81.9434286 L42.1259084,81.9434286 L40.018843,79.1298571 L39.8195065,79.1298571 L39.8195065,81.9434286 L38.0650579,81.9434286 L38.0650579,74.6705714 Z" id="Fill-23" fill="#1D1D1B" mask="url(#mask-2)"></path>
                <path d="M49.9296785,75.3294286 L48.8387252,76.3987143 C48.2644636,76.0958571 47.8506785,75.9437143 47.599529,75.9437143 C47.4037907,75.9437143 47.2368374,76.0094286 47.0957907,76.1408571 C46.9554636,76.2715714 46.8856598,76.428 46.8856598,76.6094286 C46.8856598,76.9672857 47.249071,77.278 47.9773327,77.5401429 C48.5098561,77.743 48.9135664,77.9265714 49.1863047,78.0908571 C49.459043,78.2558571 49.6878841,78.483 49.8706692,78.7744286 C50.0548935,79.0665714 50.1477252,79.383 50.1477252,79.7215714 C50.1477252,80.3465714 49.8649121,80.8894286 49.3014449,81.3515714 C48.7365383,81.8122857 48.0701645,82.043 47.3016037,82.043 C46.4589215,82.043 45.6255944,81.688 44.8030617,80.9794286 L45.9559028,79.778 C46.4725944,80.2544286 46.9554636,80.4922857 47.4066692,80.4922857 C47.6175196,80.4922857 47.8197346,80.408 48.0140336,80.2408571 C48.2076131,80.0737143 48.3047626,79.898 48.3047626,79.7137143 C48.3047626,79.3337143 47.8564355,78.9994286 46.9597813,78.7094286 C46.4474075,78.543 46.0839963,78.3865714 45.868828,78.2401429 C45.6543794,78.0944286 45.4737533,77.8822857 45.3269495,77.6037143 C45.1794262,77.3251429 45.1067439,77.0394286 45.1067439,76.7472857 C45.1067439,76.1015714 45.3420617,75.5772857 45.8134168,75.1744286 C46.284772,74.7722857 46.8993327,74.5708571 47.6614168,74.5708571 C48.5623888,74.5708571 49.3179963,74.8237143 49.9296785,75.3294286" id="Fill-24" fill="#1D1D1B" mask="url(#mask-2)"></path>
                <polygon id="Fill-25" fill="#1D1D1B" mask="url(#mask-2)" points="51.1920467 81.9435714 52.947215 81.9435714 52.947215 74.67 51.1920467 74.67"></polygon>
                <path d="M56.1800636,76.0444286 L56.1800636,80.5365714 L56.8752224,80.5365714 C57.594129,80.5365714 58.1849421,80.3608571 58.6483813,80.0108571 C59.1111009,79.6594286 59.3428206,79.0744286 59.3428206,78.2544286 C59.3428206,77.778 59.2312785,77.3558571 59.0081944,76.9887143 C58.7843907,76.6215714 58.4612785,76.3722857 58.0374187,76.2408571 C57.6135589,76.1101429 57.2098486,76.0444286 56.8248486,76.0444286 L56.1800636,76.0444286 Z M54.4133813,74.6701429 L57.1911383,74.6701429 C58.3778019,74.6701429 59.3327458,75.0051429 60.0559701,75.673 C60.7791944,76.3415714 61.1411664,77.2215714 61.1411664,78.3158571 C61.1411664,79.4122857 60.7676804,80.2908571 60.0221477,80.9522857 C59.2758953,81.613 58.2828112,81.9437143 57.0421757,81.9437143 L54.4133813,81.9437143 L54.4133813,74.6701429 Z" id="Fill-26" fill="#1D1D1B" mask="url(#mask-2)"></path>
                <path d="M65.0039037,77.0523571 L64.0468009,79.1959286 L65.9818757,79.1959286 L65.0039037,77.0523571 Z M64.3252963,74.6702143 L65.6839505,74.6702143 L69.0007075,81.9437857 L67.2347449,81.9437857 L66.5834832,80.5145 L63.459586,80.5145 L62.8198383,81.9437857 L61.0639505,81.9437857 L64.3252963,74.6702143 Z" id="Fill-27" fill="#1D1D1B" mask="url(#mask-2)"></path>
                <path d="M71.8368262,76.0444286 L71.8368262,80.5365714 L72.531985,80.5365714 C73.2508916,80.5365714 73.8417047,80.3608571 74.3051439,80.0108571 C74.7678636,79.6594286 74.9995832,79.0744286 74.9995832,78.2544286 C74.9995832,77.778 74.8880411,77.3558571 74.664957,76.9887143 C74.4411533,76.6215714 74.1180411,76.3722857 73.6941813,76.2408571 C73.2703215,76.1101429 72.8666112,76.0444286 72.4816112,76.0444286 L71.8368262,76.0444286 Z M70.0701439,74.6701429 L72.8479009,74.6701429 C74.0345645,74.6701429 74.9895084,75.0051429 75.7127327,75.673 C76.435957,76.3415714 76.797929,77.2215714 76.797929,78.3158571 C76.797929,79.4122857 76.424443,80.2908571 75.6789103,80.9522857 C74.9326579,81.613 73.9395738,81.9437143 72.6989383,81.9437143 L70.0701439,81.9437143 L70.0701439,74.6701429 Z" id="Fill-28" fill="#1D1D1B" mask="url(#mask-2)"></path>
                <path d="M32.9903981,87.8712857 L32.9903981,88.8648571 C32.2923607,88.5248571 31.6504542,88.3555714 31.0639589,88.3555714 C30.3119495,88.3555714 29.6779589,88.597 29.1634262,89.0784286 C28.6481738,89.5605714 28.3905477,90.1527143 28.3905477,90.8548571 C28.3905477,91.5705714 28.6546505,92.1677143 29.1814168,92.647 C29.7074636,93.1248571 30.3673607,93.3641429 31.1611084,93.3641429 C31.7368093,93.3641429 32.3463327,93.1841429 32.9903981,92.8248571 L32.9903981,93.8291429 C32.4046224,94.1377143 31.7691925,94.2927143 31.084828,94.2927143 C30.0816692,94.2927143 29.2245944,93.9562857 28.5128841,93.282 C27.8011738,92.6084286 27.4456785,91.7955714 27.4456785,90.8448571 C27.4456785,89.9105714 27.7954168,89.1105714 28.4948935,88.4455714 C29.1950897,87.7798571 30.0370523,87.447 31.0236598,87.447 C31.6569308,87.447 32.3132299,87.5884286 32.9903981,87.8712857" id="Fill-29" fill="#1D1D1B" mask="url(#mask-2)"></path>
                <polygon id="Fill-30" fill="#1D1D1B" mask="url(#mask-2)" points="33.9686579 87.6487857 34.8530785 87.6487857 34.8530785 90.1209286 37.9481907 90.1209286 37.9481907 87.6487857 38.8225364 87.6487857 38.8225364 94.0759286 37.9481907 94.0759286 37.9481907 90.9887857 34.8530785 90.9887857 34.8530785 94.0759286 33.9686579 94.0759286"></polygon>
                <polygon id="Fill-31" fill="#1D1D1B" mask="url(#mask-2)" points="40.105486 94.0757143 40.9798318 94.0757143 40.9798318 87.6485714 40.105486 87.6485714"></polygon>
                <polygon id="Fill-32" fill="#1D1D1B" mask="url(#mask-2)" points="42.4256327 87.6487857 43.2999785 87.6487857 43.2999785 93.2080714 45.4092028 93.2080714 45.4092028 94.0759286 42.4256327 94.0759286"></polygon>
                <polygon id="Fill-33" fill="#1D1D1B" mask="url(#mask-2)" points="46.1284692 87.6487857 49.7158056 87.6487857 49.7158056 88.5266429 47.0020953 88.5266429 47.0020953 90.1316429 49.7158056 90.1316429 49.7158056 90.9987857 47.0020953 90.9987857 47.0020953 93.2080714 49.7158056 93.2080714 49.7158056 94.0759286 46.1284692 94.0759286"></polygon>
                <polygon id="Fill-34" fill="#1D1D1B" mask="url(#mask-2)" points="4.39691589 84.3885714 76.4869065 84.3885714 76.4869065 83.7357143 4.39691589 83.7357143"></polygon>
            </g>
        </g>
    </g>
</svg>